<svg width="108" height="80" viewBox="0 0 108 80" fill="none" xmlns="http://www.w3.org/2000/svg">
<path fill-rule="evenodd" clip-rule="evenodd" d="M25.5711 10.6934C23.621 10.6926 22.9018 11.9102 22.6286 13.0206C21.9382 15.8262 24.015 18.8152 23.8651 21.5297C23.788 22.9249 22.5359 24.0546 20.8988 24.0546C19.2618 24.0546 18.0419 22.9238 17.9327 21.5297C17.7466 19.156 19.9182 17.6156 18.792 13.0622C18.0363 10.0067 17.6495 8.61131 17.652 6.28688C17.654 4.36842 19.1682 2.98227 20.8053 2.98227C21.6523 2.98227 22.6113 3.27219 23.3373 4.19215C24.0748 5.12663 24.3938 6.09081 25.3766 6.84543C26.7124 7.87111 28.3718 8.57058 29.297 8.56801C30.3938 8.56498 31.8817 7.81743 32.8753 7.07566C33.8688 6.33388 34.5007 4.79963 35.2584 4.1174C35.8255 3.60676 36.6142 2.98227 37.4215 2.98227C39.0585 2.98227 40.7467 3.80239 40.7931 6.25569C40.8198 7.66825 39.4545 9.94104 39.1225 13.0633C38.6859 17.1698 40.8305 19.156 40.4812 21.5609C40.2807 22.941 38.9962 24.0546 37.3591 24.0546C35.722 24.0546 34.525 22.9256 34.3929 21.5297C34.1694 19.1676 36.15 17.1827 35.5676 13.0371C35.4126 11.9337 34.7936 10.6504 32.8142 10.6672C31.1491 10.6813 30.3906 11.7292 29.1797 11.7292C27.9689 11.7292 27.1004 10.6941 25.5711 10.6934Z" fill="#111111" stroke="#111111" stroke-width="0.994987" stroke-miterlimit="1.5" stroke-linecap="round" stroke-linejoin="round"/>
<path fill-rule="evenodd" clip-rule="evenodd" d="M55.2544 10.7583C53.3044 10.7575 52.5852 11.9751 52.312 13.0855C51.6215 15.8911 53.6984 18.8801 53.5484 21.5946C53.4713 22.9898 52.2193 24.1195 50.5822 24.1195C48.9451 24.1195 47.7253 22.9887 47.616 21.5946C47.43 19.2209 49.6016 17.6805 48.4754 13.1271C47.7196 10.0716 47.3329 8.67621 47.3353 6.35179C47.3374 4.43332 48.8516 3.04717 50.4887 3.04717C51.3357 3.04717 52.2947 3.3371 53.0207 4.25706C53.7581 5.19153 54.0771 6.15572 55.0599 6.91034C56.3957 7.93602 58.0552 8.63549 58.9803 8.63292C60.0771 8.62989 61.5651 7.88234 62.5586 7.14056C63.5522 6.39879 64.184 4.86453 64.9417 4.1823C65.5088 3.67167 66.2976 3.04717 67.1048 3.04717C68.7419 3.04717 70.4301 3.86729 70.4764 6.32059C70.5031 7.73315 69.1378 10.0059 68.8059 13.1282C68.3693 17.2348 70.5139 19.2209 70.1646 21.6258C69.9641 23.0059 68.6795 24.1195 67.0424 24.1195C65.4054 24.1195 64.2083 22.9905 64.0763 21.5946C63.8528 19.2325 65.8334 17.2476 65.2509 13.102C65.0959 11.9986 64.4769 10.7153 62.4975 10.7321C60.8325 10.7462 60.0739 11.7941 58.8631 11.7941C57.6522 11.7941 56.7837 10.759 55.2544 10.7583Z" fill="#111111" stroke="#111111" stroke-width="0.994987" stroke-miterlimit="1.5" stroke-linecap="round" stroke-linejoin="round"/>
<path fill-rule="evenodd" clip-rule="evenodd" d="M81.7999 13.7706C81.1714 12.7875 77.3367 8.37377 77.1162 7.33079C76.5951 4.8669 78.3021 3.7737 79.034 3.43311C80.5182 2.74241 82.4115 2.80951 83.5385 5.1214C84.1874 6.45254 83.9547 9.18846 85.0346 12.2956C86.4548 16.3825 89.2776 17.3651 90.0244 19.7979C90.453 21.1941 89.7809 22.7944 88.2967 23.4851C86.8124 24.1758 85.2279 23.6079 84.4908 22.337C83.2435 20.1866 84.1614 17.4646 81.7999 13.7706Z" fill="#111111" stroke="#111111" stroke-width="0.998231" stroke-miterlimit="1.5" stroke-linecap="round" stroke-linejoin="round"/>
<path fill-rule="evenodd" clip-rule="evenodd" d="M47.8689 33.222C48.8853 26.3687 65.1886 26.6146 65.7961 34.9564C66.0191 38.0175 63.2056 38.4581 62.4635 40.8741C62.0039 42.3705 64.3785 44.783 66.5881 45.4519C68.0637 45.8987 69.7684 46.8604 69.0776 49.3119C68.5427 51.2103 66.1526 51.7513 64.3785 50.8597C63.0809 50.2077 61.8243 47.6147 60.8442 45.4519C58.9888 41.3575 53.3438 40.2648 53.6715 48.5277C53.7278 49.947 52.8179 51.691 50.3934 51.6043C48.72 51.5444 47.2228 50.3746 47.5114 48.1211C47.7702 46.1006 49.4192 43.2936 49.6413 40.8741C49.7386 39.8138 47.4903 35.7742 47.8689 33.222Z" fill="#111111" stroke="#111111" stroke-width="1.00068" stroke-miterlimit="1.5" stroke-linecap="round" stroke-linejoin="round"/>
<path fill-rule="evenodd" clip-rule="evenodd" d="M54.5243 36.027C53.7975 35.7621 51.9467 34.4132 53.6248 32.8579C55.99 30.6657 61.0512 32.58 60.3109 34.8828C59.571 37.1842 56.3488 36.692 54.5243 36.027Z" fill="#FAFAFA" stroke="#111111" stroke-width="0.0322908" stroke-miterlimit="1.5" stroke-linecap="round" stroke-linejoin="round"/>
<path fill-rule="evenodd" clip-rule="evenodd" d="M28.191 37.2959C23.7364 37.2777 21.4464 40.6807 21.1732 41.791C20.4828 44.5966 23.7019 46.0407 23.3643 48.7383C23.131 50.6021 21.5979 51.7318 19.9608 51.7318C18.3237 51.7318 16.2241 50.4784 16.2137 48.6133C16.1972 45.6421 18.7303 45.5738 18.1039 41.6765C17.6043 38.5687 16.3857 28.1848 28.191 28.2413C40.4353 28.2999 37.8828 38.7452 37.5285 41.865C37.1544 45.1594 39.8924 45.2401 39.7617 48.707C39.7092 50.1006 38.2751 51.8855 36.1087 51.7943C34.0657 51.7082 32.5305 49.8692 32.5178 48.6758C32.4847 45.5797 35.4619 45.2659 35.0044 41.8387C34.8569 40.7343 32.7453 37.3146 28.191 37.2959Z" fill="#111111" stroke="#111111" stroke-width="0.994987" stroke-miterlimit="1.5" stroke-linecap="round" stroke-linejoin="round"/>
<path fill-rule="evenodd" clip-rule="evenodd" d="M28.1015 34.4975C24.9348 34.5943 22.5834 35.4403 22.9821 33.8061C23.9382 29.8875 33.6578 31.2614 32.8664 34.4662C32.3762 36.4513 30.6479 34.4196 28.1015 34.4975Z" fill="#FAFAFA" stroke="#111111" stroke-width="0.0313771" stroke-miterlimit="1.5" stroke-linecap="round" stroke-linejoin="round"/>
<path fill-rule="evenodd" clip-rule="evenodd" d="M91.1022 34.8197C82.2563 32.3864 84.2028 38.0379 84.3097 40.3676C84.5448 45.4884 86.6012 45.0524 86.9897 47.927C87.3833 50.8393 84.8221 51.8422 83.5083 51.7875C82.0801 51.7281 79.5258 51.3388 80.0016 47.8295C80.384 45.0093 82.3522 43.8449 82.4306 40.9623C82.611 34.329 81.5278 33.8092 75.9308 35.5254C73.1903 36.0031 71.6856 34.0944 71.6856 32.3763C71.7409 31.1522 72.2913 28.483 76.0174 29.0891C79.1069 30.0862 79.8962 31.5043 83.3478 31.3583C85.9818 31.2469 86.6042 31.0167 89.5365 29.0625C92.1527 27.3191 95.2538 29.0212 94.8448 32.3831C94.7369 33.2694 93.523 35.4856 91.1022 34.8197Z" fill="#111111" stroke="#111111" stroke-width="0.995723" stroke-miterlimit="1.5" stroke-linecap="round" stroke-linejoin="round"/>
<path fill-rule="evenodd" clip-rule="evenodd" d="M50.7824 62.9288C49.5702 64.1564 49.7408 67.2012 50.9139 68.2968C52.3167 69.607 54.0001 68.9481 58.21 68.0425C63.0156 67.0088 67.2232 69.8868 66.8364 72.8911C66.4192 76.1311 64.4357 76.9976 61.5242 77.7654C58.6127 78.5332 52.7861 78.273 50.2289 77.2689C46.6037 75.8453 44.7919 71.2077 44.8861 67.4415C44.9583 64.551 46.1067 61.2598 48.4274 58.7355C50.7225 56.239 54.1002 55.581 55.6752 55.4426C56.5092 55.3693 60.268 54.8193 63.8103 55.9904C65.0719 56.4074 67.9492 57.1387 67.41 60.4314C67.0808 62.4414 64.1132 62.6723 62.8783 62.0005C59.722 60.2835 56.8098 60.8275 55.0338 61.0779C52.9707 61.3688 51.9953 61.7003 50.7824 62.9288Z" fill="#111111" stroke="#111111" stroke-width="1.00132" stroke-miterlimit="1.5" stroke-linecap="round" stroke-linejoin="round"/>
<path fill-rule="evenodd" clip-rule="evenodd" d="M62.955 73.857C61.919 77.1722 51.8896 77.214 53.0432 72.9893C53.5988 70.9543 56.3286 70.5577 59.4347 70.523C62.0799 70.4934 63.5756 71.8708 62.955 73.857Z" fill="#FAFAFA" stroke="#111111" stroke-width="0.0319556" stroke-miterlimit="1.5" stroke-linecap="round" stroke-linejoin="round"/>
<path fill-rule="evenodd" clip-rule="evenodd" d="M33.6332 56.3306C35.6313 56.8536 37.2079 58.7209 36.5494 61.9889C36.5494 69.0019 22.9567 70.9491 22.9567 74.1332C23.3464 75.3186 34.8528 74.3533 37.4646 73.7927C41.2518 72.9798 41.4242 77.8212 38.5662 77.8909C36.4294 77.9431 23.8955 78.093 21.4735 78.1955C18.7538 78.3105 16.7623 77.8734 17.003 74.8936C17.4481 69.3854 26.0094 67.9501 27.6009 67.2806C30.4335 66.089 32.3263 64.585 31.4544 62.0807C29.8299 59.2546 27.0975 59.681 25.1075 60.2234C22.6825 60.8844 20.9145 62.0415 18.7672 61.9889C17.47 61.9571 15.682 61.6878 15.5429 59.0514C15.3622 55.6272 20.6183 55.865 20.6183 55.865C20.2286 55.8632 26.3343 55.865 26.3343 55.865C26.0582 55.8627 30.5628 55.5268 33.6332 56.3306Z" fill="#111111" stroke="#111111" stroke-width="0.991238" stroke-miterlimit="1.5" stroke-linecap="round" stroke-linejoin="round"/>
</svg>
