<svg width="470" height="406" viewBox="0 0 470 406" fill="none" xmlns="http://www.w3.org/2000/svg">
<path d="M254.667 9.66027C189.717 -19.3087 147.614 23.4234 135.312 51.8473L133.247 58.3172C137.675 114.386 77.5311 134.842 45.5481 136.984C-3.65639 146.796 -4.06644 194.61 3.72428 215.246C16.2923 248.537 28.7366 271.899 31.4018 282.412C28.4495 335.211 34.2721 356.976 37.5524 361.259C72.9796 422.001 135.961 407.984 163.024 393.382C210.26 359.274 248.312 362.038 261.433 367.684C308.669 399.456 351.231 401.559 366.608 398.639C446.319 373.408 432.214 312.588 415.197 285.333C394.039 232.067 424.013 179.425 441.645 159.762C490.849 88.2736 465.017 45.0927 445.95 32.4382C426.268 10.0107 368.453 31.4649 336.47 45.8715C313.713 52.2961 267.379 21.7307 254.667 9.66027Z" fill="black"/>
</svg>
