<svg width="1917" height="2608" viewBox="0 0 1917 2608" fill="none" xmlns="http://www.w3.org/2000/svg">
<path d="M1176.07 0C1233.65 0.000212617 1268.84 50.1415 1263.19 81.0322C1254.17 130.279 1211.38 166.758 1244.16 214.445C1273.7 257.424 1352.8 287.419 1425.4 268.616C1556.27 234.721 1558.61 119.656 1689.75 130.727C1832.94 142.815 1792.89 248.022 1914.55 278.018C1920.06 279.382 1914.55 490.217 1914.55 494.253V771.115H1917V1976.3C1907.99 2015.7 1935.2 2209.85 1829.38 2202.39C1708.72 2193.88 1766.8 2320.58 1550.51 2320.58C1480.42 2320.58 1479.92 2526.97 1255.62 2526.97C1009.31 2526.97 1035.83 2339.38 927.184 2339.38C846.577 2339.38 826.049 2375.42 814.033 2386.84C766.47 2432.06 822.544 2485.78 826.049 2526.97C829.553 2568.16 793.806 2608 736.931 2608C679.354 2608 645.347 2557.86 651 2526.97C660.012 2477.72 701.616 2441.24 668.84 2393.55C639.3 2350.58 560.195 2320.58 487.599 2339.38C356.734 2373.28 354.393 2488.34 223.247 2477.27C80.0567 2465.19 120.11 2359.98 -1.55176 2329.98C-7.05899 2328.62 -1.55195 2117.78 -1.55176 2113.75V1836.88H-4V631.695C5.01198 592.298 -22.1963 398.151 83.6162 405.61C204.277 414.117 146.2 287.419 362.487 287.419C432.581 287.419 433.081 81.0322 657.38 81.0322C903.686 81.0322 877.172 268.616 985.816 268.616C1066.42 268.616 1086.95 232.583 1098.97 221.16C1146.53 175.943 1090.46 122.22 1086.95 81.0322C1083.45 39.8446 1119.19 0 1176.07 0Z" fill="black"/>
</svg>
