<svg width="393" height="2062" fill="none" xmlns="http://www.w3.org/2000/svg"><path d="M393 2023.36c-100.906-5.88-91.277-88.36-139.491-88.36-37.094 0-46.54 17.04-52.07 22.44-21.887 21.38 3.918 46.78 5.531 66.25 1.611 19.47-14.838 38.31-41.011 38.31-26.495 0-42.69-23.71-40.089-38.31 4.147-23.28 23.838-40.53 8.755-63.07-13.593-20.32-49.995-34.51-83.402-25.62-23.943 6.38-38.536 18.82-51.223 31.16V38.64c100.906 5.88 91.277 88.355 139.491 88.355 37.094 0 46.54-17.035 52.07-22.435 21.887-21.378-3.918-46.777-5.531-66.25C184.419 18.838 200.868 0 227.041 0c26.495 0 42.69 23.706 40.089 38.31-4.147 23.282-23.838 40.53-8.755 63.075 13.593 20.319 49.995 34.5 83.402 25.61 23.943-6.371 38.536-18.81 51.223-31.153V2023.36z" fill="#111"/></svg>