<svg width="1256" height="682" viewBox="0 0 1256 682" fill="none" xmlns="http://www.w3.org/2000/svg">
<path fill-rule="evenodd" clip-rule="evenodd" d="M75.2281 77.0023C57.9348 76.9946 51.5569 87.7929 49.1338 97.6397C43.0112 122.52 61.4286 149.027 60.0988 173.099C59.4151 185.472 48.312 195.491 33.7941 195.491C19.2763 195.491 8.45876 185.463 7.4896 173.099C5.83964 152.049 25.0979 138.389 15.1106 98.0091C8.40834 70.912 4.97868 58.5377 5.00059 37.9245C5.01863 20.9113 18.4466 8.61874 32.9646 8.61874C40.4762 8.61874 48.9806 11.1898 55.4188 19.3481C61.9588 27.6352 64.7877 36.1857 73.5033 42.8777C85.3492 51.9736 100.065 58.1766 108.27 58.1538C117.996 58.1269 131.191 51.4976 140.002 44.9194C148.814 38.3413 154.417 24.7353 161.136 18.6852C166.165 14.1568 173.16 8.61874 180.319 8.61874C194.836 8.61874 209.808 15.8916 210.218 37.6478C210.455 50.1746 198.348 70.3299 195.404 98.0182C191.532 134.436 210.551 152.049 207.453 173.376C205.675 185.615 194.283 195.491 179.765 195.491C165.248 195.491 154.632 185.479 153.461 173.099C151.479 152.152 169.044 134.549 163.878 97.7858C162.503 88.0007 157.014 76.6202 139.461 76.7693C124.695 76.8945 117.968 86.1874 107.23 86.1874C96.4922 86.1874 88.7899 77.0084 75.2281 77.0023Z" fill="#111111" stroke="#111111" stroke-width="0.994987" stroke-miterlimit="1.5" stroke-linecap="round" stroke-linejoin="round"/>
<path fill-rule="evenodd" clip-rule="evenodd" d="M338.462 77.578C321.168 77.5702 314.79 88.3686 312.367 98.2153C306.245 123.096 324.662 149.603 323.332 173.675C322.648 186.048 311.545 196.067 297.027 196.067C282.51 196.067 271.692 186.039 270.723 173.675C269.073 152.625 288.331 138.964 278.344 98.5847C271.642 71.4876 268.212 59.1133 268.234 38.5001C268.252 21.4869 281.68 9.19437 296.198 9.19437C303.71 9.19437 312.214 11.7654 318.652 19.9237C325.192 28.2108 328.021 36.7613 336.737 43.4534C348.583 52.5492 363.299 58.7522 371.503 58.7294C381.229 58.7025 394.425 52.0732 403.236 45.495C412.047 38.9169 417.65 25.3109 424.369 19.2608C429.399 14.7324 436.393 9.19437 443.552 9.19437C458.07 9.19437 473.041 16.4673 473.452 38.2234C473.688 50.7502 461.581 70.9055 458.637 98.5938C454.765 135.011 473.784 152.625 470.686 173.952C468.908 186.191 457.517 196.067 442.999 196.067C428.481 196.067 417.866 186.054 416.694 173.675C414.712 152.728 432.277 135.125 427.112 98.3614C425.737 88.5764 420.248 77.1958 402.694 77.3449C387.928 77.4702 381.201 86.763 370.463 86.763C359.726 86.763 352.023 77.5841 338.462 77.578Z" fill="#111111" stroke="#111111" stroke-width="0.994987" stroke-miterlimit="1.5" stroke-linecap="round" stroke-linejoin="round"/>
<path fill-rule="evenodd" clip-rule="evenodd" d="M574.326 103.944C568.698 95.1368 534.662 55.4145 532.554 46.1516C527.576 24.2691 542.148 14.9096 548.42 12.0297C561.14 6.1894 577.544 7.12422 587.739 27.7718C593.609 39.6602 592.113 63.8123 602.051 91.4842C615.122 127.881 639.747 137.079 646.674 158.727C650.649 171.151 645.133 185.181 632.414 191.022C619.694 196.862 605.868 191.555 599.245 180.183C588.039 160.942 595.471 137.036 574.326 103.944Z" fill="#111111" stroke="#111111" stroke-width="0.998231" stroke-miterlimit="1.5" stroke-linecap="round" stroke-linejoin="round"/>
<path fill-rule="evenodd" clip-rule="evenodd" d="M837.723 281.171C846.736 220.395 991.316 222.576 996.704 296.552C998.681 323.699 973.731 327.606 967.15 349.03C963.074 362.301 984.132 383.695 1003.73 389.628C1016.81 393.589 1031.93 402.118 1025.8 423.858C1021.06 440.693 999.866 445.491 984.132 437.585C972.625 431.802 961.481 408.807 952.79 389.628C936.336 353.317 886.275 343.627 889.181 416.904C889.68 429.49 881.612 444.957 860.111 444.187C845.271 443.656 831.994 433.282 834.553 413.298C836.848 395.38 851.472 370.488 853.441 349.03C854.304 339.628 834.366 303.804 837.723 281.171Z" fill="#111111" stroke="#111111" stroke-width="1.00068" stroke-miterlimit="1.5" stroke-linecap="round" stroke-linejoin="round"/>
<path fill-rule="evenodd" clip-rule="evenodd" d="M896.743 306.046C890.298 303.697 873.885 291.735 888.766 277.942C909.741 258.502 954.624 275.478 948.06 295.899C941.498 316.309 912.923 311.943 896.743 306.046Z" fill="#FAFAFA" stroke="#111111" stroke-width="0.0322908" stroke-miterlimit="1.5" stroke-linecap="round" stroke-linejoin="round"/>
<path fill-rule="evenodd" clip-rule="evenodd" d="M663.217 317.299C623.714 317.138 603.406 347.316 600.983 357.162C594.86 382.043 623.408 394.849 620.414 418.772C618.345 435.3 604.749 445.318 590.231 445.318C575.713 445.318 557.093 434.203 557.001 417.663C556.854 391.315 579.319 390.709 573.763 356.147C569.334 328.587 558.527 236.501 663.217 237.002C771.801 237.521 749.165 330.152 746.023 357.818C742.706 387.033 766.986 387.749 765.828 418.494C765.362 430.853 752.644 446.682 733.432 445.872C715.315 445.109 701.701 428.801 701.588 418.218C701.294 390.761 727.696 387.978 723.639 357.585C722.331 347.791 703.606 317.465 663.217 317.299Z" fill="#111111" stroke="#111111" stroke-width="0.994987" stroke-miterlimit="1.5" stroke-linecap="round" stroke-linejoin="round"/>
<path fill-rule="evenodd" clip-rule="evenodd" d="M662.423 292.483C634.34 293.341 613.488 300.844 617.024 286.351C625.502 251.6 711.697 263.785 704.678 292.205C700.331 309.809 685.004 291.792 662.423 292.483Z" fill="#FAFAFA" stroke="#111111" stroke-width="0.0313771" stroke-miterlimit="1.5" stroke-linecap="round" stroke-linejoin="round"/>
<path fill-rule="evenodd" clip-rule="evenodd" d="M1221.12 295.334C1142.68 273.758 1159.94 323.878 1160.88 344.539C1162.97 389.953 1181.2 386.085 1184.65 411.579C1188.13 437.407 1165.42 446.302 1153.77 445.818C1141.11 445.291 1118.46 441.84 1122.68 410.717C1126.07 385.705 1143.52 375.378 1144.22 349.814C1145.82 290.987 1136.22 286.377 1086.59 301.599C1062.28 305.837 1048.94 288.91 1048.94 273.673C1049.43 262.817 1054.31 239.145 1087.36 244.519C1114.75 253.36 1121.75 265.937 1152.36 264.641C1175.72 263.652 1181.23 261.609 1207.24 244.278C1230.44 228.815 1257.94 243.909 1254.31 273.724C1253.35 281.584 1242.59 301.239 1221.12 295.334Z" fill="#111111" stroke="#111111" stroke-width="0.995723" stroke-miterlimit="1.5" stroke-linecap="round" stroke-linejoin="round"/>
<path fill-rule="evenodd" clip-rule="evenodd" d="M312.981 544.023C302.241 554.91 303.764 581.94 314.167 591.677C326.607 603.321 341.528 597.488 378.842 589.488C421.437 580.357 458.746 605.945 455.328 632.611C451.642 661.369 434.063 669.043 408.257 675.831C382.451 682.62 330.801 680.256 308.129 671.318C275.988 658.647 259.911 617.46 260.731 584.028C261.361 558.369 271.528 529.164 292.09 506.776C312.425 484.636 342.365 478.826 356.326 477.612C363.718 476.969 397.035 472.123 428.44 482.551C439.625 486.266 465.133 492.785 460.366 522.009C457.456 539.849 431.15 541.871 420.201 535.896C392.216 520.624 366.403 525.426 350.661 527.632C332.374 530.195 323.729 533.129 312.981 544.023Z" fill="#111111" stroke="#111111" stroke-width="1.00132" stroke-miterlimit="1.5" stroke-linecap="round" stroke-linejoin="round"/>
<path fill-rule="evenodd" clip-rule="evenodd" d="M420.788 641.457C411.918 671.14 323.339 670.727 333.17 632.888C337.905 614.661 361.982 611.315 389.413 611.247C412.774 611.19 426.101 623.674 420.788 641.457Z" fill="#FAFAFA" stroke="#111111" stroke-width="0.0319556" stroke-miterlimit="1.5" stroke-linecap="round" stroke-linejoin="round"/>
<path fill-rule="evenodd" clip-rule="evenodd" d="M161.195 485.542C178.907 490.176 192.878 506.737 187.029 535.731C187.006 597.946 66.4972 615.262 66.4867 643.51C69.9378 654.025 171.948 645.426 195.104 640.445C228.681 633.222 230.193 676.171 204.856 676.799C185.913 677.268 74.7968 678.636 53.3249 679.552C29.2134 680.581 11.56 676.709 13.7041 650.273C17.6673 601.407 93.5705 588.647 107.681 582.703C132.797 572.123 149.581 558.775 141.861 536.561C127.468 511.494 103.243 515.285 85.5998 520.103C64.0997 525.974 48.4226 536.245 29.3859 535.784C17.8866 535.507 2.03579 533.123 0.811344 509.734C-0.778988 479.357 45.8168 481.451 45.8168 481.451C42.3618 481.436 96.4899 481.433 96.4899 481.433C94.0426 481.414 133.978 478.421 161.195 485.542Z" fill="#111111" stroke="#111111" stroke-width="0.991238" stroke-miterlimit="1.5" stroke-linecap="round" stroke-linejoin="round"/>
</svg>
