<svg width="910" height="408" viewBox="0 0 910 408" fill="none" xmlns="http://www.w3.org/2000/svg">
<path fill-rule="evenodd" clip-rule="evenodd" d="M38.9912 42.2072C29.5122 42.2029 26.0163 48.1218 24.6882 53.5191C21.3322 67.1567 31.4273 81.686 30.6984 94.8807C30.3236 101.663 24.2377 107.154 16.28 107.154C8.32244 107.154 2.39301 101.658 1.86179 94.8807C0.957397 83.3424 11.5134 75.8547 6.03908 53.7216C2.36538 38.8689 0.485483 32.0862 0.497494 20.7875C0.507378 11.4621 7.86764 4.72417 15.8253 4.72417C19.9427 4.72417 24.6042 6.13344 28.1332 10.6052C31.7179 15.1476 33.2685 19.8344 38.0458 23.5025C44.5389 28.4882 52.6051 31.8882 57.1023 31.8757C62.4335 31.861 69.6663 28.2273 74.4958 24.6216C79.3255 21.0159 82.3968 13.5581 86.0798 10.2419C88.8365 7.75975 92.6705 4.72417 96.5944 4.72417C104.552 4.72417 112.758 8.71065 112.983 20.6358C113.113 27.5021 106.477 38.5498 104.863 53.7266C102.741 73.6881 113.165 83.3423 111.467 95.0323C110.493 101.741 104.249 107.154 96.2911 107.154C88.3335 107.154 82.5149 101.666 81.8729 94.8807C80.7865 83.399 90.4141 73.7504 87.5828 53.5992C86.8293 48.2357 83.8206 41.9977 74.199 42.0794C66.1052 42.1481 62.418 47.2417 56.5323 47.2417C50.6466 47.2417 46.4248 42.2105 38.9912 42.2072Z" fill="#111111" stroke="#111111" stroke-width="0.994987" stroke-miterlimit="1.5" stroke-linecap="round" stroke-linejoin="round"/>
<path fill-rule="evenodd" clip-rule="evenodd" d="M183.277 42.5227C173.798 42.5184 170.302 48.4373 168.974 53.8346C165.618 67.4722 175.713 82.0015 174.984 95.1962C174.61 101.978 168.524 107.47 160.566 107.47C152.608 107.47 146.679 101.973 146.148 95.1962C145.243 83.6579 155.799 76.1702 150.325 54.0371C146.651 39.1844 144.771 32.4017 144.784 21.103C144.793 11.7776 152.154 5.03967 160.111 5.03967C164.229 5.03967 168.89 6.44895 172.419 10.9208C176.004 15.4631 177.555 20.1499 182.332 23.818C188.825 28.8037 196.891 32.2037 201.388 32.1913C206.72 32.1765 213.952 28.5428 218.782 24.9371C223.612 21.3314 226.683 13.8736 230.366 10.5574C233.123 8.07525 236.956 5.03967 240.88 5.03967C248.838 5.03967 257.044 9.02616 257.269 20.9513C257.399 27.8176 250.763 38.8653 249.149 54.0421C247.027 74.0036 257.451 83.6579 255.753 95.3478C254.779 102.056 248.535 107.47 240.577 107.47C232.62 107.47 226.801 101.982 226.159 95.1962C225.073 83.7145 234.7 74.0659 231.869 53.9147C231.115 48.5512 228.107 42.3132 218.485 42.3949C210.391 42.4636 206.704 47.5573 200.818 47.5573C194.933 47.5573 190.711 42.526 183.277 42.5227Z" fill="#111111" stroke="#111111" stroke-width="0.994987" stroke-miterlimit="1.5" stroke-linecap="round" stroke-linejoin="round"/>
<path fill-rule="evenodd" clip-rule="evenodd" d="M312.327 57.1372C309.27 52.3511 290.629 30.8503 289.552 25.7794C287.007 13.8002 295.286 8.51303 298.837 6.86869C306.037 3.534 315.227 3.8873 320.712 15.1367C323.87 21.6139 322.757 34.904 328.018 50.017C334.938 69.8948 348.645 74.7098 352.286 86.5413C354.375 93.3313 351.122 101.097 343.922 104.432C336.722 107.767 329.027 104.985 325.441 98.7989C319.374 88.3323 323.812 75.1195 312.327 57.1372Z" fill="#111111" stroke="#111111" stroke-width="0.998231" stroke-miterlimit="1.5" stroke-linecap="round" stroke-linejoin="round"/>
<path fill-rule="evenodd" clip-rule="evenodd" d="M447.619 164.533C452.559 131.22 531.808 132.415 534.761 172.963C535.844 187.843 522.168 189.984 518.561 201.728C516.327 209.002 527.87 220.729 538.61 223.981C545.783 226.152 554.069 230.827 550.712 242.743C548.111 251.971 536.494 254.601 527.87 250.267C521.562 247.098 515.454 234.494 510.69 223.981C501.671 204.078 474.231 198.766 475.824 238.931C476.098 245.83 471.675 254.308 459.89 253.886C451.756 253.595 444.478 247.909 445.881 236.955C447.139 227.134 455.155 213.489 456.234 201.728C456.707 196.574 445.779 176.938 447.619 164.533Z" fill="#111111" stroke="#111111" stroke-width="1.00068" stroke-miterlimit="1.5" stroke-linecap="round" stroke-linejoin="round"/>
<path fill-rule="evenodd" clip-rule="evenodd" d="M479.969 178.167C476.436 176.88 467.44 170.323 475.597 162.762C487.094 152.107 511.696 161.412 508.097 172.605C504.501 183.792 488.838 181.4 479.969 178.167Z" fill="#FAFAFA" stroke="#111111" stroke-width="0.0322908" stroke-miterlimit="1.5" stroke-linecap="round" stroke-linejoin="round"/>
<path fill-rule="evenodd" clip-rule="evenodd" d="M351.967 184.335C330.314 184.247 319.182 200.788 317.854 206.185C314.498 219.823 330.146 226.843 328.505 239.955C327.371 249.015 319.919 254.506 311.961 254.506C304.003 254.506 293.797 248.414 293.747 239.348C293.666 224.905 305.98 224.573 302.935 205.629C300.506 190.522 294.583 140.048 351.967 140.322C411.485 140.607 399.077 191.38 397.355 206.545C395.537 222.559 408.846 222.951 408.211 239.803C407.955 246.577 400.984 255.254 390.454 254.81C380.523 254.392 373.061 245.452 372.999 239.651C372.838 224.602 387.31 223.076 385.086 206.417C384.369 201.049 374.105 184.426 351.967 184.335Z" fill="#111111" stroke="#111111" stroke-width="0.994987" stroke-miterlimit="1.5" stroke-linecap="round" stroke-linejoin="round"/>
<path fill-rule="evenodd" clip-rule="evenodd" d="M351.531 170.733C336.138 171.203 324.709 175.315 326.647 167.372C331.294 148.324 378.54 155.002 374.693 170.58C372.31 180.23 363.909 170.354 351.531 170.733Z" fill="#FAFAFA" stroke="#111111" stroke-width="0.0313771" stroke-miterlimit="1.5" stroke-linecap="round" stroke-linejoin="round"/>
<path fill-rule="evenodd" clip-rule="evenodd" d="M657.77 172.298C614.771 160.47 624.233 187.942 624.752 199.266C625.895 224.158 635.891 222.038 637.779 236.011C639.692 250.167 627.243 255.043 620.857 254.777C613.914 254.488 601.498 252.596 603.811 235.537C605.67 221.828 615.237 216.169 615.618 202.157C616.495 169.913 611.23 167.386 584.024 175.729C570.702 178.051 563.388 168.773 563.388 160.422C563.657 154.471 566.332 141.497 584.444 144.443C599.462 149.29 603.299 156.183 620.077 155.473C632.88 154.932 635.906 153.812 650.159 144.313C662.876 135.839 677.951 144.112 675.962 160.454C675.438 164.762 669.537 175.535 657.77 172.298Z" fill="#111111" stroke="#111111" stroke-width="0.995723" stroke-miterlimit="1.5" stroke-linecap="round" stroke-linejoin="round"/>
<path fill-rule="evenodd" clip-rule="evenodd" d="M828.048 332.875C822.157 338.843 822.986 353.645 828.689 358.972C835.507 365.341 843.69 362.139 864.153 357.739C887.511 352.716 907.963 366.71 906.084 381.315C904.057 397.065 894.416 401.277 880.264 405.008C866.112 408.738 837.791 407.471 825.361 402.588C807.74 395.665 798.932 373.119 799.389 354.81C799.74 340.758 805.321 324.76 816.601 312.489C827.756 300.354 844.174 297.157 851.83 296.485C855.883 296.129 874.153 293.457 891.371 299.152C897.504 301.18 911.49 304.737 908.869 320.744C907.27 330.514 892.845 331.635 886.843 328.369C871.5 320.02 857.346 322.664 848.713 323.88C838.685 325.293 833.944 326.904 828.048 332.875Z" fill="#111111" stroke="#111111" stroke-width="1.00132" stroke-miterlimit="1.5" stroke-linecap="round" stroke-linejoin="round"/>
<path fill-rule="evenodd" clip-rule="evenodd" d="M887.212 386.028C882.191 402.161 833.457 402.315 839.046 381.756C841.738 371.852 855.001 369.935 870.094 369.782C882.947 369.651 890.221 376.363 887.212 386.028Z" fill="#FAFAFA" stroke="#111111" stroke-width="0.0319556" stroke-miterlimit="1.5" stroke-linecap="round" stroke-linejoin="round"/>
<path fill-rule="evenodd" clip-rule="evenodd" d="M744.844 300.804C754.556 303.346 762.219 312.423 759.017 328.309C759.016 362.4 692.946 371.867 692.945 387.346C694.839 393.108 750.769 388.413 763.464 385.688C781.873 381.736 782.71 405.27 768.818 405.61C758.432 405.864 697.508 406.594 685.735 407.093C672.515 407.653 662.835 405.528 664.006 391.043C666.17 364.267 707.785 357.288 715.52 354.034C729.289 348.241 738.49 340.93 734.252 328.756C726.357 315.019 713.075 317.092 703.402 319.729C691.615 322.943 683.021 328.567 672.583 328.312C666.278 328.158 657.587 326.849 656.911 314.033C656.034 297.388 681.582 298.543 681.582 298.543C679.688 298.535 709.366 298.542 709.366 298.542C708.024 298.531 729.919 296.898 744.844 300.804Z" fill="#111111" stroke="#111111" stroke-width="0.991238" stroke-miterlimit="1.5" stroke-linecap="round" stroke-linejoin="round"/>
</svg>
