<svg width="1921" height="769" fill="none" xmlns="http://www.w3.org/2000/svg"><mask id="a" style="mask-type:alpha" maskUnits="userSpaceOnUse" x="0" y="0" width="1921" height="769"><path fill="#D9D9D9" d="M0 0H1921V769H0z"/></mask><g mask="url(#a)" fill="#000"><path d="M-.001 1914.81l959.276-850.31 959.275 712.87V3120H-.001V1914.81z"/><path d="M87.615 405.61C-18.198 398.15 9.01 1875.41-.001 1914.81l959.276-850.31 959.275 712.87c0-4.03 5.51-1497.995 0-1499.353-121.66-29.995-81.61-135.203-224.8-147.291-131.14-11.071-133.48 103.995-264.35 137.89-72.6 18.803-151.7-11.192-181.24-54.171-32.78-47.688 10.01-84.166 19.03-133.413C1272.84 50.142 1237.65 0 1180.07 0c-56.88 0-92.62 39.845-89.12 81.032 3.51 41.188 59.58 94.911 12.02 140.128-12.02 11.424-32.55 47.456-113.154 47.456-108.644 0-82.13-187.584-328.437-187.584-224.298 0-224.801 206.387-294.894 206.387-216.288 0-158.21 126.697-278.87 118.191z"/></g></svg>